Coordinates
version=1
nRows=26
nColumns=24
inDegrees=yes

Units are S.I. units (second, meters, Newtons, ...)
Angles are in degrees.

endheader
time	pelvis_tilt	pelvis_list	pelvis_rotation	pelvis_tx	pelvis_ty	pelvis_tz	hip_flexion_r	hip_adduction_r	hip_rotation_r	knee_angle_r	ankle_angle_r	subtalar_angle_r	mtp_angle_r	hip_flexion_l	hip_adduction_l	hip_rotation_l	knee_angle_l	ankle_angle_l	subtalar_angle_l	mtp_angle_l	lumbar_extension	lumbar_bending	lumbar_rotation
      1.46683333	      0.48391772	     -0.85183280	    -14.81461939	      0.89766324	      0.98612031	      0.32138420	    -19.63878842	      0.67258083	      9.12879882	     -9.47951321	     13.04322822	     -5.70762886	     11.31817753	     22.85696826	     -5.45439939	    -13.83722298	      4.09226648	      5.82243643	     -8.64566997	      4.66183457	     -2.10226325	      1.28083294	     12.74582855
      1.47100000	      0.48694539	     -0.77311009	    -14.97095533	      0.90354445	      0.98556613	      0.32121688	    -19.73549611	      0.44333029	      9.07524839	     -9.89896315	     12.94766571	     -5.47337370	     12.00902979	     22.90056240	     -5.40992909	    -13.99290646	      3.59379606	      6.03700816	     -8.57020385	      4.54385330	     -2.06437465	      1.17256565	     12.98999363
      1.47516667	      0.52509328	     -0.72058968	    -15.06055136	      0.90948937	      0.98506501	      0.32100714	    -19.93072638	      0.25931325	      9.06857680	    -10.21496218	     12.73796949	     -5.47323240	     12.08359578	     22.89629073	     -5.35304423	    -13.94458567	      3.09002096	      6.19506535	     -8.75346651	      4.53736744	     -2.05550282	      1.08666567	     13.00594751
      1.47933333	      0.53611959	     -0.63789360	    -15.16608827	      0.91549234	      0.98455327	      0.32077599	    -20.05104917	      0.03891005	      8.98100884	    -10.59826057	     12.49577518	     -5.38213373	     17.22337480	     22.92920358	     -5.27816939	    -13.99221816	      2.53717806	      6.34786588	     -8.73134307	      4.28819435	     -2.01913654	      0.97597982	     13.04793847
      1.48350000	      0.57362739	     -0.54923498	    -15.27692591	      0.92152695	      0.98410967	      0.32057207	    -20.20166095	     -0.18769757	      8.97613988	    -10.98240945	     12.25723112	     -5.38196679	     17.23049549	     22.90564424	     -5.18420894	    -13.95989632	      2.01650564	      6.39186349	     -8.90138221	      4.29193092	     -2.00392040	      0.85269410	     13.11530154
      1.48766667	      0.61074994	     -0.44730446	    -15.37490643	      0.92763260	      0.98367974	      0.32033306	    -20.33292423	     -0.42912313	      8.88479435	    -11.39917583	     12.03242019	     -5.23903943	     17.30229689	     22.87339559	     -5.06519374	    -13.89763656	      1.50033040	      6.38505953	     -9.06999927	      4.32224177	     -1.96726593	      0.70599832	     13.34429764
      1.49183333	      0.64134958	     -0.33558640	    -15.47869764	      0.93376565	      0.98328737	      0.32010150	    -20.44737213	     -0.67434887	      8.85794518	    -11.82833661	     11.75569468	     -5.23107487	     17.32151865	     22.84989309	     -4.93932743	    -13.86298394	      0.95719002	      6.35069431	     -9.19291789	      4.33129198	     -1.93403282	      0.56061268	     13.37409866
      1.49600000	      0.66389779	     -0.18847877	    -15.56015202	      0.94000214	      0.98289246	      0.31983559	    -20.53406355	     -0.95214735	      8.72525267	    -12.28081118	     11.46535162	     -5.07610606	     17.42359729	     22.82900201	     -4.76521665	    -13.79771829	      0.43061658	      6.26084549	     -9.30990200	      4.37580857	     -1.85016650	      0.35459807	     13.50159711
      1.50016667	      0.68835557	     -0.04409061	    -15.64894960	      0.94623535	      0.98252870	      0.31953821	    -20.58558054	     -1.23217190	      8.56370375	    -12.80417333	     11.21726600	     -4.88092193	     17.66866683	     22.81131952	     -4.59303348	    -13.75191927	     -0.11118714	      6.06744772	     -9.47234420	      4.48211842	     -1.77865702	      0.18414389	     13.63616108
      1.50433333	      0.74274103	      0.10532591	    -15.72731058	      0.95252761	      0.98226286	      0.31925476	    -20.69219757	     -1.51525906	      8.48343381	    -13.26385460	     10.75740016	     -4.95010713	     21.29922511	     22.71519814	     -4.38797332	    -13.57928621	     -0.55654210	      5.74808825	     -9.86431745	      6.17052006	     -1.73976235	     -0.01739581	     13.63351945
      1.50850000	      0.75093928	      0.29189075	    -15.77891483	      0.95887735	      0.98193539	      0.31893011	    -20.71136022	     -1.81446988	      8.31999377	    -13.79782102	     10.39482693	     -4.86373612	     21.33243388	     22.73826604	     -4.16762103	    -13.55596486	     -1.14007516	      5.54053056	     -9.83795779	      6.18873594	     -1.62408886	     -0.25742341	     13.70605613
      1.51266667	      0.76066555	      0.47493717	    -15.83953749	      0.96521118	      0.98164395	      0.31857146	    -20.68638029	     -2.11744316	      8.12106477	    -14.41604072	     10.06767741	     -4.66604499	     21.45224016	     22.75673334	     -3.94836338	    -13.52490824	     -1.71629534	      5.23295480	     -9.91674128	      6.24712125	     -1.51929764	     -0.46712182	     13.79210147
      1.51683333	      0.78613725	      0.68546837	    -15.87782940	      0.97161664	      0.98140829	      0.31819102	    -20.67638508	     -2.44447246	      7.91142818	    -15.02185447	      9.65841424	     -4.51816460	     21.80339054	     22.74142059	     -3.67774009	    -13.40047030	     -2.24678051	      4.89639613	    -10.14437829	      6.41669551	     -1.41581951	     -0.73151368	     13.84464063
      1.52100000	      0.82526069	      0.87990630	    -15.90454102	      0.97804896	      0.98124942	      0.31781733	    -20.68495448	     -2.74624317	      7.75214272	    -15.61984447	      9.14007318	     -4.55075820	     21.85263745	     22.72528796	     -3.42723987	    -13.37426158	     -2.80574917	      4.50608514	    -10.15950968	      6.43823779	     -1.32568276	     -0.96643060	     13.85771892
      1.52516667	      0.82968119	      1.12106230	    -15.91440223	      0.98452893	      0.98106535	      0.31741526	    -20.62344206	     -3.08229457	      7.55813017	    -16.26265500	      8.61847731	     -4.44618564	     21.97152326	     22.75291790	     -3.12888209	    -13.29052149	     -3.35970189	      4.07205719	    -10.22717018	      6.49015281	     -1.18823667	     -1.27299931	     13.87614395
      1.52933333	      0.81573261	      1.35909726	    -15.92459131	      0.99094769	      0.98086907	      0.31693058	    -20.46547473	     -3.42245701	      7.26212175	    -17.05085720	      8.20874833	     -4.16841394	     22.40187428	     22.80394787	     -2.82833291	    -13.12313275	     -3.90856803	      3.57313083	    -10.53404134	      6.67376754	     -1.04244598	     -1.53100894	     13.87820055
      1.53350000	      0.86434212	      1.59635234	    -15.89516622	      0.99746198	      0.98082435	      0.31648382	    -20.43296149	     -3.74779043	      7.06699804	    -17.71963909	      7.55603143	     -4.18684905	     22.54519422	     22.80861219	     -2.51544549	    -13.05953135	     -4.50926563	      3.17032107	    -10.52801949	      6.73386649	     -0.94848316	     -1.84642975	     13.88312694
      1.53766667	      0.87283868	      1.85507344	    -15.85924119	      1.00395637	      0.98073753	      0.31596479	    -20.28435007	     -4.09393465	      6.77961373	    -18.51216426	      6.94555806	     -4.18908917	     29.05532488	     22.85813705	     -2.18070077	    -12.92991361	     -5.09528041	      2.67809197	    -10.75299903	      9.35077700	     -0.80637427	     -2.15334396	     13.85528845
      1.54183333	      0.90943833	      2.10297663	    -15.83060063	      1.01045103	      0.98074434	      0.31545524	    -20.15372279	     -4.43809353	      6.53252331	    -19.32391925	      6.30050607	     -4.01247174	     29.10050658	     22.89728914	     -1.86472471	    -12.90016805	     -5.74304463	      2.28511169	    -10.74462633	      9.37391443	     -0.70815317	     -2.44826872	     13.83737625
      1.54600000	      0.93703303	      2.36166207	    -15.77229991	      1.01695315	      0.98076875	      0.31491055	    -19.99119167	     -4.77740395	      6.27651443	    -20.17727659	      5.62589264	     -3.91130448	     29.17603843	     22.94931046	     -1.52824911	    -12.81931497	     -6.38927878	      1.90641804	    -10.77058504	      9.40222153	     -0.59475058	     -2.75990126	     13.80161134
      1.55016667	      0.98633980	      2.61899328	    -15.70527366	      1.02344062	      0.98086581	      0.31436699	    -19.84228711	     -5.11325871	      6.05730828	    -21.03677589	      4.88889097	     -3.85798934	     29.23045697	     22.99290679	     -1.19014174	    -12.75848694	     -7.07489453	      1.57134022	    -10.78753289	      9.41901972	     -0.51222704	     -3.09389815	     13.78411645
      1.55433333	      0.98295042	      2.87981744	    -15.61947140	      1.02989367	      0.98090106	      0.31374996	    -19.57729046	     -5.44219505	      5.78408829	    -22.01265113	      4.22950035	     -3.67348743	     29.42054163	     23.10899161	     -0.85625548	    -12.67012339	     -7.79176230	      1.25978807	    -10.82315832	      9.46814886	     -0.36742028	     -3.39507497	     13.70405114
      1.55850000	      1.02599919	      3.13621797	    -15.52093885	      1.03636733	      0.98105898	      0.31313164	    -19.36508043	     -5.77022945	      5.54358987	    -22.96467244	      3.41071488	     -3.65142794	     33.10912526	     23.15050269	     -0.50316805	    -12.55586468	     -8.46044502	      0.93901149	    -10.90684779	     10.39189842	     -0.28255869	     -3.70872706	     13.58945600
      1.56266667	      1.07826800	      3.39502280	    -15.42728105	      1.04283265	      0.98125159	      0.31252361	    -19.13083356	     -6.10332692	      5.32345837	    -23.97602748	      2.63551615	     -3.56466232	     33.12884346	     23.19414181	     -0.15727939	    -12.51126566	     -9.16764277	      0.72257639	    -10.82442146	     10.39426361	     -0.20641811	     -4.03128432	     13.59214594
      1.56683333	      1.14354554	      3.64310089	    -15.32464783	      1.04924008	      0.98150540	      0.31190259	    -18.89531010	     -6.41997211	      5.14599207	    -25.00469671	      1.81120636	     -3.51262267	     33.14834122	     23.22330735	      0.18565824	    -12.45731212	     -9.88739672	      0.54001398	    -10.79766204	     10.39513211	     -0.16123636	     -4.35988114	     13.56344543
      1.57100000	      1.15654547	      3.88179369	    -15.21317537	      1.05558888	      0.98169445	      0.31124095	    -18.54896585	     -6.71462145	      4.96077495	    -26.13928353	      1.04558346	     -3.40615834	     33.21137130	     23.31098591	      0.50592645	    -12.40261622	    -10.60841107	      0.37292041	    -10.72978617	     10.40032657	     -0.05905585	     -4.63504444	     13.48332786
